<svg width="66" height="19" viewBox="0 0 66 19" fill="none" xmlns="http://www.w3.org/2000/svg">
<path d="M10.992 17.04H12.432C11.328 15.632 10.216 14.224 9.096 12.816C7.992 11.392 6.88 9.968 5.76 8.544L3.672 10.536C3.672 11.624 3.672 12.712 3.672 13.8C3.688 14.872 3.696 15.952 3.696 17.04H5.664V18H0.84V17.04H2.688V2.16H0.84V1.2H5.472V2.16H3.696V8.736C3.68 8.864 3.664 8.984 3.648 9.096C3.648 9.208 3.648 9.328 3.648 9.456L4.08 8.952L11.184 2.16H9.912V1.2H14.544V2.16H12.48L6.456 7.896C7.656 9.432 8.856 10.96 10.056 12.48C11.256 14 12.456 15.52 13.656 17.04H15.624V18H10.992V17.04ZM17.3171 13.488C17.3171 12.848 17.4371 12.24 17.6771 11.664C17.9331 11.088 18.2691 10.592 18.6851 10.176C19.1171 9.744 19.6131 9.408 20.1731 9.168C20.7491 8.912 21.3651 8.784 22.0211 8.784C22.6771 8.784 23.2931 8.912 23.8691 9.168C24.4451 9.408 24.9491 9.744 25.3811 10.176C25.8131 10.592 26.1491 11.088 26.3891 11.664C26.6451 12.24 26.7731 12.848 26.7731 13.488C26.7731 14.144 26.6451 14.76 26.3891 15.336C26.1491 15.896 25.8131 16.384 25.3811 16.8C24.9491 17.216 24.4451 17.552 23.8691 17.808C23.2931 18.048 22.6771 18.168 22.0211 18.168C21.3651 18.168 20.7491 18.048 20.1731 17.808C19.6131 17.552 19.1171 17.216 18.6851 16.8C18.2691 16.384 17.9331 15.896 17.6771 15.336C17.4371 14.76 17.3171 14.144 17.3171 13.488ZM18.3011 13.488C18.3011 14 18.3971 14.48 18.5891 14.928C18.7811 15.376 19.0451 15.768 19.3811 16.104C19.7171 16.44 20.1091 16.704 20.5571 16.896C21.0051 17.088 21.4851 17.184 21.9971 17.184C22.5091 17.184 22.9891 17.088 23.4371 16.896C23.9011 16.704 24.3011 16.44 24.6371 16.104C24.9731 15.768 25.2371 15.376 25.4291 14.928C25.6211 14.48 25.7171 14 25.7171 13.488C25.7171 12.976 25.6211 12.496 25.4291 12.048C25.2371 11.6 24.9731 11.208 24.6371 10.872C24.3011 10.536 23.9011 10.272 23.4371 10.08C22.9891 9.872 22.5091 9.768 21.9971 9.768C21.4851 9.768 21.0051 9.872 20.5571 10.08C20.1091 10.272 19.7171 10.536 19.3811 10.872C19.0451 11.208 18.7811 11.6 18.5891 12.048C18.3971 12.496 18.3011 12.976 18.3011 13.488ZM36.9934 17.04C36.9934 16.848 36.9934 16.664 36.9934 16.488C37.0094 16.296 37.0174 16.112 37.0174 15.936C36.9054 16.208 36.7294 16.48 36.4894 16.752C36.2654 17.024 35.9854 17.264 35.6494 17.472C35.3294 17.68 34.9534 17.848 34.5214 17.976C34.1054 18.104 33.6574 18.168 33.1774 18.168C32.5214 18.168 31.9054 18.048 31.3294 17.808C30.7534 17.552 30.2494 17.216 29.8174 16.8C29.4014 16.384 29.0654 15.896 28.8094 15.336C28.5694 14.76 28.4494 14.144 28.4494 13.488C28.4494 12.848 28.5694 12.248 28.8094 11.688C29.0654 11.112 29.4014 10.616 29.8174 10.2C30.2494 9.768 30.7534 9.432 31.3294 9.192C31.9054 8.936 32.5214 8.808 33.1774 8.808C33.6414 8.808 34.0734 8.872 34.4734 9C34.8894 9.128 35.2654 9.304 35.6014 9.528C35.9374 9.736 36.2254 9.976 36.4654 10.248C36.7054 10.52 36.8814 10.8 36.9934 11.088C36.9774 10.752 36.9614 10.416 36.9454 10.08C36.9294 9.744 36.9134 9.408 36.8974 9.072V0.959999H35.2174V-1.43051e-06H37.9054V17.04H39.6814V18H36.9934V17.04ZM29.4574 13.488C29.4574 14 29.5534 14.48 29.7454 14.928C29.9374 15.376 30.1934 15.768 30.5134 16.104C30.8494 16.44 31.2414 16.704 31.6894 16.896C32.1534 17.088 32.6494 17.184 33.1774 17.184C33.7054 17.184 34.1934 17.088 34.6414 16.896C35.0894 16.704 35.4814 16.44 35.8174 16.104C36.1534 15.768 36.4174 15.376 36.6094 14.928C36.8014 14.48 36.8974 14 36.8974 13.488C36.8974 12.976 36.8014 12.496 36.6094 12.048C36.4174 11.584 36.1534 11.184 35.8174 10.848C35.4814 10.512 35.0894 10.248 34.6414 10.056C34.1934 9.864 33.7054 9.768 33.1774 9.768C32.6494 9.768 32.1534 9.864 31.6894 10.056C31.2414 10.248 30.8494 10.512 30.5134 10.848C30.1934 11.184 29.9374 11.584 29.7454 12.048C29.5534 12.496 29.4574 12.976 29.4574 13.488ZM41.3634 13.488C41.3634 12.848 41.4834 12.248 41.7234 11.688C41.9794 11.112 42.3154 10.616 42.7314 10.2C43.1634 9.768 43.6674 9.432 44.2434 9.192C44.8194 8.936 45.4354 8.808 46.0914 8.808C46.5554 8.808 46.9954 8.88 47.4114 9.024C47.8274 9.152 48.2034 9.328 48.5394 9.552C48.8754 9.76 49.1554 10.008 49.3794 10.296C49.6194 10.568 49.7954 10.84 49.9074 11.112C49.9074 10.76 49.9154 10.408 49.9314 10.056C49.9634 9.704 49.9874 9.352 50.0034 9H50.8194V17.04H52.5954V18H49.9074V17.04C49.9074 16.848 49.9074 16.664 49.9074 16.488C49.9234 16.296 49.9314 16.112 49.9314 15.936C49.8194 16.208 49.6434 16.48 49.4034 16.752C49.1794 17.024 48.8994 17.264 48.5634 17.472C48.2434 17.68 47.8674 17.848 47.4354 17.976C47.0194 18.104 46.5714 18.168 46.0914 18.168C45.4354 18.168 44.8194 18.048 44.2434 17.808C43.6674 17.552 43.1634 17.216 42.7314 16.8C42.3154 16.384 41.9794 15.896 41.7234 15.336C41.4834 14.76 41.3634 14.144 41.3634 13.488ZM42.3714 13.488C42.3714 14 42.4674 14.48 42.6594 14.928C42.8514 15.376 43.1074 15.768 43.4274 16.104C43.7634 16.44 44.1554 16.704 44.6034 16.896C45.0674 17.088 45.5634 17.184 46.0914 17.184C46.6194 17.184 47.1074 17.088 47.5554 16.896C48.0034 16.704 48.3954 16.44 48.7314 16.104C49.0674 15.768 49.3314 15.376 49.5234 14.928C49.7154 14.48 49.8114 14 49.8114 13.488C49.8114 12.976 49.7154 12.496 49.5234 12.048C49.3314 11.584 49.0674 11.184 48.7314 10.848C48.3954 10.512 48.0034 10.248 47.5554 10.056C47.1074 9.864 46.6194 9.768 46.0914 9.768C45.5634 9.768 45.0674 9.864 44.6034 10.056C44.1554 10.248 43.7634 10.512 43.4274 10.848C43.1074 11.184 42.8514 11.584 42.6594 12.048C42.4674 12.496 42.3714 12.976 42.3714 13.488ZM61.0455 17.04H62.9175V11.76C62.8855 11.248 62.6935 10.8 62.3415 10.416C62.0055 10.032 61.5015 9.824 60.8295 9.792C60.3495 9.792 59.8855 9.88 59.4375 10.056C58.9895 10.216 58.5895 10.44 58.2375 10.728C57.9015 11.016 57.6295 11.36 57.4215 11.76C57.2295 12.16 57.1335 12.6 57.1335 13.08V17.04H58.9095V18H54.2775V17.04H56.1495V0.959999H54.3735V-1.43051e-06H57.1335V10.248L57.0615 11.328C57.3975 10.56 57.9095 9.96 58.5975 9.528C59.3015 9.08 60.1095 8.84 61.0215 8.808C61.9015 8.808 62.5975 9.056 63.1095 9.552C63.6215 10.048 63.8935 10.696 63.9255 11.496V17.04H65.6775V18H61.0455V17.04Z" fill="black"/>
</svg>
